<svg width="122" height="128" viewBox="0 0 122 128" fill="none" xmlns="http://www.w3.org/2000/svg">
<g clip-path="url(#clip0_135_501)">
<path d="M119.954 51.1601L71.2367 4.63898C70.7744 4.12412 70.2701 3.65129 69.7342 3.20473L69.2614 2.75291C69.2614 2.75291 69.2403 2.75817 69.2088 2.77393C66.9077 1.05073 64.0918 0 61.0026 0C57.9135 0 55.0923 1.05073 52.7964 2.77393C52.7596 2.75817 52.7439 2.75291 52.7439 2.75291L52.2658 3.20998C51.7299 3.65654 51.2308 4.12412 50.7685 4.64423L2.04612 51.1601C0.97438 52.2423 0.438507 53.6503 0.438507 55.0635V110.111C0.438507 114.671 4.13708 118.37 8.69725 118.37H113.303C117.863 118.37 121.561 114.671 121.561 110.111V55.0635C121.561 53.6503 121.026 52.2423 119.954 51.1601Z" fill="#F3AA06"/>
<path d="M88.5318 66.0647C88.5318 81.2688 76.2067 93.5938 61.0026 93.5938C45.7985 93.5938 33.4735 81.274 33.4735 66.0647C33.4735 50.8659 45.7985 38.5355 61.0026 38.5355C76.2067 38.5408 88.5318 50.8659 88.5318 66.0647Z" stroke="#2094F1" stroke-width="0.2005" stroke-miterlimit="10"/>
<path d="M113.303 101.853V38.5408L83.0207 8.25874H16.956C12.3958 8.25874 8.69725 11.9573 8.69725 16.5175V101.858H113.303V101.853Z" fill="#EBF6FF"/>
<path d="M113.303 118.37H8.69725C4.13708 118.37 0.438507 114.677 0.438507 110.111V55.053L113.303 118.37Z" fill="#FFBF0D"/>
<path d="M8.69725 118.37H113.303C117.863 118.37 121.561 114.671 121.561 110.111V55.053L8.69725 118.37Z" fill="#FECE40"/>
<path d="M83.0207 8.25874V30.2821C83.0207 34.8422 86.7193 38.5408 91.2794 38.5408H113.303L83.0207 8.25874Z" fill="#0095EF"/>
<path d="M95.1619 44.0414H28.1936V49.5472H95.1619V44.0414Z" fill="#BFE4FF"/>
<path d="M70.9373 55.053H28.1936V60.5589H70.9373V55.053Z" fill="#BFE4FF"/>
<path d="M54.0573 33.0297H28.1936V38.5355H54.0573V33.0297Z" fill="#BFE4FF"/>
<path d="M100.689 75.6368C103.226 76.2778 107.907 78.5526 108.89 82.4456C110.361 88.2876 107.419 96.8669 112.079 105.262C113.565 107.936 86.341 111.535 86.341 111.535L81.0873 82.0043C81.0873 82.0043 87.6491 75.5948 88.9888 75.164C91.7628 74.2656 95.6137 74.3602 100.689 75.6368Z" fill="#4E99FF"/>
<path d="M81.0401 82.0148C80.0944 84.3737 77.704 98.4114 80.3676 101.721C80.6723 102.105 78.9859 102.698 79.2906 104.443C79.3431 104.737 79.8527 106.129 79.8527 106.129L82.0277 106.696L88.6001 102.956L87.3392 101.422L86.7403 101.432C86.7403 101.432 86.1781 100.907 86.3357 100.261C86.4933 99.6198 84.8279 98.569 82.3114 87.6782C81.5759 84.4787 81.2449 81.4947 81.0401 82.0148Z" fill="#2B83FD"/>
<path d="M83.5828 101.059L85.5267 100.628L86.3147 100.502C86.32 101.038 86.7455 101.432 86.7455 101.432L85.2377 101.48L83.4725 101.858L81.3343 103.077L83.5828 101.059Z" fill="#ECB60D"/>
<path d="M86.362 102.872C86.362 102.872 84.8595 102.851 83.5776 103.644C82.6056 104.243 81.7073 105.551 82.6004 106.255C83.4988 106.964 84.8752 107.621 84.8752 107.621C84.8752 107.621 88.3006 107.716 86.362 102.872Z" fill="#C4D1E1"/>
<path d="M82.6056 106.308L83.5198 106.113C83.5198 106.113 86.672 105.83 87.1185 106.071C87.5703 106.318 89.0151 107.295 89.0151 107.295L89.3146 107.569C89.3146 107.569 88.6106 108.005 87.6649 107.343C86.714 106.681 86.6352 107.19 86.6352 107.19L86.7981 108.031L86.7823 109.103L86.9294 109.554C86.9294 109.554 87.0607 109.801 86.9609 109.891C86.6615 110.148 86.362 110.027 86.362 110.027L85.4006 108.351L85.1432 110.174C85.1432 110.174 85.0118 110.421 84.7124 110.484C84.4339 110.547 84.4287 110.469 84.4287 110.469L84.2133 110.006C84.1922 110.101 84.1397 110.232 84.0241 110.321C83.7877 110.511 83.4515 110.484 83.4515 110.484L83.5408 108.567L83.1468 109.539C83.1468 109.539 83.0102 109.78 82.716 109.849C82.3955 109.922 82.3114 109.948 82.3114 109.948L82.6056 106.308Z" fill="#E4EEF3"/>
<path d="M98.9393 98.8002C98.9393 98.8002 96.6539 104.6 91.1481 106.15C90.1972 106.418 89.614 107.448 90.0711 107.779C90.6595 108.204 91.4633 108.294 92.845 108.288C95.724 108.283 99.6327 107.39 102.344 104.768C106.352 100.891 107.613 99.1259 107.209 97.1768C106.809 95.2225 98.9393 98.8002 98.9393 98.8002Z" fill="#E9D6B8"/>
<path d="M108.102 80.4912C109.268 82.4035 109.94 85.4822 109.935 89.8795C109.925 93.2839 106.988 98.8632 106.536 100.576C106.457 100.86 106.284 102.089 106.284 102.089L103.027 105.283L96.4963 100.86L98.4822 97.8125L99.0759 97.8756C99.0759 97.8756 99.4489 96.1944 99.349 95.5377C99.244 94.8862 101.156 86.1021 102.102 80.4702C102.643 77.2234 106.951 78.5946 108.102 80.4912Z" fill="#2B83FD"/>
<path d="M102.26 97.76L100.358 97.1716L99.5855 96.9772C99.5382 97.5078 99.0759 97.8703 99.0759 97.8703L100.573 98.0437L102.302 98.569L104.324 99.9613L102.26 97.76Z" fill="#4E99FF"/>
<path d="M91.5684 106.134L88.2428 105.225C88.2428 105.225 87.3024 106.492 87.481 106.802C87.6597 107.117 87.481 108.987 87.481 108.987L89.0939 110.358L90.4073 109.922C90.4073 109.922 90.5019 109.35 90.0501 109.297C89.5983 109.239 90.3495 108.913 90.5859 108.777C90.8171 108.64 92.7452 107.647 91.5684 106.134Z" fill="#E9D6B8"/>
<path d="M96.6644 75.3531C97.0322 76.4091 96.4753 77.5754 95.4193 77.9432L93.5332 78.6052C92.4773 78.9729 91.311 78.416 90.9432 77.36L89.262 72.5635C88.8943 71.5075 89.4512 70.3412 90.5071 69.9734L92.3932 69.3114C93.4492 68.9437 94.6155 69.5006 94.9833 70.5566L96.6644 75.3531Z" fill="#E4EEF3"/>
<path d="M88.4319 79.5666C88.6211 80.2653 89.3461 80.6751 90.0448 80.4807L95.7398 78.9099C96.4385 78.7207 96.8483 77.9957 96.6539 77.297L94.3318 68.8596C94.1374 68.1609 93.4177 67.7511 92.7189 67.9455L87.024 69.5111C86.3252 69.7055 85.9154 70.4252 86.1098 71.124L88.4319 79.5666Z" fill="#E9D6B8"/>
<path d="M86.5774 72.8734C86.5774 72.8734 85.5897 72.2693 85.306 71.8017C85.1642 71.5705 85.1484 70.5408 85.679 69.9997C86.2096 69.4586 86.9241 69.9944 86.9241 69.9944C86.9241 69.9944 86.0678 70.835 86.0731 71.0609C86.0836 71.2868 86.5774 72.8734 86.5774 72.8734Z" fill="#163F59"/>
<path d="M95.9604 72.5004C95.9604 72.5004 95.9289 69.0225 95.5086 68.1189C95.0936 67.21 94.8046 66.5795 93.6121 66.8002C91.8311 67.1207 91.9151 67.4937 90.9222 67.1995C89.9345 66.9053 88.0642 66.0542 87.5073 66.0699C86.5774 66.0962 85.2955 66.7634 85.6948 68.4131C85.989 69.6319 85.3113 70.1363 85.3428 70.173C85.4479 70.3044 85.8051 70.3517 86.4303 70.4778C88.2323 70.835 89.2253 70.7299 90.3495 70.0785C91.4738 69.427 93.5438 68.1189 94.0534 68.9437C94.563 69.7685 95.2144 72.5372 95.3773 72.7211C95.5454 72.8997 95.7923 72.7211 95.9604 72.5004Z" fill="#194866"/>
<path d="M94.8624 75.5265C94.9255 75.7577 95.1671 75.8943 95.4035 75.8312L96.6329 75.495C96.8641 75.432 97.0006 75.1903 96.9376 74.9591L96.3177 72.7106C96.2546 72.4794 96.013 72.3376 95.7766 72.4059L94.5472 72.7473C94.316 72.8104 94.1794 73.0521 94.2425 73.2885L94.8624 75.5265Z" fill="#E9D6B8"/>
<path d="M87.5231 77.5492C87.5914 77.7856 87.8278 77.9222 88.0642 77.8539L89.2935 77.5124C89.5247 77.4493 89.6613 77.2077 89.5983 76.9765L88.9783 74.728C88.9153 74.4968 88.6736 74.3602 88.4424 74.4232L87.2131 74.7647C86.9819 74.8278 86.8453 75.0694 86.9084 75.3006L87.5231 77.5492Z" fill="#E9D6B8"/>
<path d="M95.6137 73.3935C95.6137 73.3935 96.5278 76.7138 96.8378 77.8224C97.111 78.8206 97.3211 81.1322 91.6629 82.6872C88.3164 83.6066 87.7595 81.1164 87.5388 80.3073C87.3707 79.6927 87.5598 77.6543 87.8173 77.2077C87.8278 77.1919 88.1955 78.5789 88.1955 78.5789C88.1955 78.5789 88.5213 77.0501 90.1131 76.614C92.6822 75.91 93.6751 77.2497 94.7994 76.9135C95.661 76.6455 95.9289 75.0432 95.6137 73.3935Z" fill="#194866"/>
<path d="M91.768 78.4948L90.0133 78.9782C89.7821 79.0412 89.5405 78.9046 89.4774 78.6682L89.4091 78.4265L92.0097 77.7068L92.078 77.9537C92.1358 78.1954 91.9992 78.4318 91.768 78.4948Z" fill="#E9D6B8"/>
<path d="M63.9867 112.187C64.7958 114.43 79.0016 122.678 83.7667 122.184L98.1144 122.867C110.313 121.375 116.092 102.42 116.092 102.42C115.604 97.6602 103.583 104.558 99.3018 106.696C92.514 110.085 88.2271 110.253 88.2271 110.253C83.6879 110.715 78.4237 107.217 72.692 107.096C66.3981 106.964 62.7101 108.656 63.9867 112.187Z" fill="#282723"/>
<path d="M95.2039 109.912C95.2092 109.906 95.2092 109.901 95.2144 109.891V109.292L70.517 108.84L70.5065 109.434C70.5065 109.434 70.5012 109.449 70.5065 109.455L70.5695 109.565C70.8795 110.09 71.4469 110.19 72.0983 110.206L93.591 110.595C94.2425 110.61 94.8151 110.526 95.1409 110.011L95.2039 109.912Z" fill="#B6C2C9"/>
<path d="M89.2515 109.901C89.2515 109.901 89.2463 109.912 89.2515 109.917L89.3093 110.011C89.4039 110.143 89.5247 110.248 89.6665 110.321L93.4229 110.39C94.0481 110.4 94.5997 110.337 94.9097 109.922L94.9727 109.833C94.978 109.828 94.9832 109.822 94.9885 109.817V109.523L89.2673 109.418L89.2515 109.901Z" fill="#D8E5ED"/>
<path d="M85.9207 109.686L73.5799 109.46L73.5851 109.04L85.9259 109.265L85.9207 109.686Z" fill="#879BA6"/>
<path d="M89.1254 109.166L86.1466 96.9719C86.0678 96.6515 85.7421 96.3835 85.4216 96.3783L68.0951 96.063C67.7746 96.0578 67.5802 96.31 67.659 96.6357L70.6431 108.829L89.1254 109.166Z" fill="#B0BFDE"/>
<path d="M79.443 102.625C79.5953 103.245 79.217 103.744 78.5971 103.733C77.9772 103.723 77.352 103.208 77.1996 102.588C77.0473 101.963 77.4256 101.469 78.0455 101.48C78.6654 101.49 79.2906 102.005 79.443 102.625Z" fill="#E4EFFF"/>
<path d="M100.305 126.03C98.5925 126.324 97.2948 124.338 97.2948 124.338L92.8765 120.86L93.8117 118.512L102.412 122.379C102.412 122.379 102.018 125.741 100.305 126.03Z" fill="#E9D6B8"/>
<path d="M97.2896 124.207C97.2896 124.207 97.2843 124.412 97.6153 125.315C97.9463 126.224 98.3508 126.539 98.7764 126.666C100.426 127.149 101.613 126.907 105.58 127.669C109.546 128.431 110.734 127.858 111.895 126.03C113.056 124.202 111.853 122.767 109.919 122.62C107.119 122.41 105.564 122.731 104.104 122.51C102.58 122.279 102.48 121.937 101.587 121.386C100.747 120.871 99.9742 123.939 100.768 124.648C101.461 125.273 97.8833 125.368 97.2896 124.207Z" fill="#2B83FD"/>
<path d="M98.1354 125.972C99.7798 126.455 100.972 126.214 104.934 126.976C108.9 127.737 110.087 127.165 111.249 125.336C111.784 124.491 111.811 123.739 111.501 123.151C112.373 123.75 112.667 124.801 111.884 126.035C110.723 127.863 109.536 128.436 105.569 127.674C101.603 126.912 100.416 127.154 98.7659 126.671C98.4349 126.571 98.1249 126.356 97.8465 125.857C97.9463 125.899 98.0409 125.941 98.1354 125.972Z" fill="white"/>
<path d="M97.2948 124.259C97.2896 124.222 97.2896 124.207 97.2896 124.207C97.3 124.228 97.3156 124.248 97.326 124.269C97.3156 124.264 97.3052 124.264 97.2948 124.259Z" fill="#E9D6B8"/>
<path d="M105.858 125.636C105.984 125.683 106.1 125.441 106.137 125.105C106.216 124.417 106.363 123.739 106.594 123.062C106.709 122.725 106.704 122.431 106.568 122.389C106.426 122.352 106.205 122.589 106.095 122.92C105.874 123.587 105.727 124.265 105.659 124.942C105.632 125.273 105.732 125.583 105.858 125.636Z" fill="white"/>
<path d="M104.629 125.41C104.766 125.436 104.886 125.2 104.923 124.885C104.997 124.244 105.149 123.603 105.375 122.962C105.485 122.647 105.48 122.373 105.333 122.358C105.186 122.342 104.955 122.578 104.85 122.888C104.629 123.524 104.492 124.16 104.424 124.79C104.393 125.105 104.498 125.378 104.629 125.41Z" fill="white"/>
<path d="M103.342 125.352C103.484 125.373 103.62 125.121 103.673 124.795C103.778 124.139 103.956 123.471 104.209 122.809C104.335 122.484 104.335 122.21 104.177 122.205C104.025 122.2 103.783 122.452 103.662 122.773C103.415 123.429 103.247 124.086 103.153 124.737C103.105 125.063 103.2 125.336 103.342 125.352Z" fill="white"/>
<path d="M100.006 120.356C100.006 120.356 69.6554 107.879 67.9217 107.863C62.0586 107.81 63.4035 113.742 66.3719 116.531C69.876 119.825 96.5226 125.846 96.5226 125.846L100.006 120.356Z" fill="#323B31"/>
<path d="M87.9696 122.526L96.2546 114.671L92.7189 111.173L83.6774 120.682L87.9696 122.526Z" fill="#E9D6B8"/>
<path d="M86.2517 116.347C86.2517 116.347 107.335 97.0192 108.758 96.4466C113.571 94.4922 116.555 99.8089 116.381 101.642C116.161 104.022 94.7416 123.377 94.7416 123.377L86.2517 116.347Z" fill="#3C463B"/>
<path d="M73.7584 123.14C73.2646 123.597 73.1805 124.937 73.1805 124.937C73.1805 124.937 80.2152 127.595 82.6897 127.648C83.3306 127.664 84.4864 127.401 85.5949 127.096C85.7841 127.044 86.2096 126.566 86.3935 126.508C86.7297 126.408 86.8085 126.739 87.0975 126.645C87.8435 126.403 88.3794 126.203 88.4004 126.166C89.8872 123.009 89.3828 121.449 89.3828 121.449C89.3828 121.449 86.1518 122.373 86.7034 121.648C87.8908 120.104 84.5022 118.517 83.7456 119.342C80.7248 122.636 75.1822 121.822 73.7584 123.14Z" fill="#2B83FD"/>
<path d="M73.3645 123.797C75.529 124.653 80.0734 126.434 80.977 126.492C84.6808 126.755 87.2656 125.436 88.9993 124.664C88.847 125.116 88.6526 125.61 88.3952 126.161C88.3742 126.198 87.8383 126.403 87.0923 126.639C86.8033 126.734 86.7245 126.403 86.3883 126.503C86.2044 126.555 85.7789 127.039 85.5897 127.091C84.4865 127.396 83.3254 127.659 82.6845 127.643C80.21 127.595 73.1753 124.932 73.1753 124.932C73.1753 124.932 73.1964 124.322 73.3645 123.797Z" fill="white"/>
<path d="M78.3397 121.748C78.2714 121.869 78.5498 122.016 78.9438 122.095C79.7424 122.258 80.541 122.499 81.3185 122.815C81.702 122.972 82.054 123.009 82.1066 122.872C82.1591 122.736 81.8912 122.484 81.5129 122.331C80.7406 122.027 79.9526 121.79 79.1645 121.638C78.7757 121.564 78.4027 121.627 78.3397 121.748Z" fill="white"/>
<path d="M79.9158 121.186C79.858 121.312 80.1259 121.485 80.5095 121.596C81.287 121.822 82.0593 122.121 82.8053 122.499C83.1731 122.683 83.5145 122.741 83.5618 122.599C83.6091 122.457 83.3569 122.179 82.9892 121.995C82.2432 121.627 81.4814 121.338 80.7143 121.123C80.3361 121.023 79.9788 121.065 79.9158 121.186Z" fill="white"/>
<path d="M81.4393 120.697C81.3816 120.829 81.6442 121.028 82.0172 121.17C82.7738 121.454 83.5145 121.816 84.229 122.247C84.5863 122.457 84.9068 122.536 84.954 122.389C85.0013 122.247 84.7597 121.937 84.4077 121.727C83.6932 121.307 82.9576 120.955 82.2116 120.682C81.8386 120.55 81.4919 120.566 81.4393 120.697Z" fill="white"/>
</g>
<defs>
<clipPath id="clip0_135_501">
<rect width="121.123" height="128" fill="white" transform="translate(0.438507)"/>
</clipPath>
</defs>
</svg>
