<svg width="24" height="24" viewBox="0 0 24 24" fill="none" xmlns="http://www.w3.org/2000/svg">
<path d="M11.988 14.44C11.988 12.44 14.988 12.187 14.988 10.333C14.9885 9.62395 14.7378 8.93765 14.2805 8.39584C13.8231 7.85402 13.1886 7.49171 12.4895 7.37318C11.7905 7.25465 11.072 7.38756 10.4616 7.74834C9.85119 8.10911 9.3883 8.67442 9.15503 9.344" stroke="#FA5F55" stroke-width="2" stroke-linecap="round" stroke-linejoin="round"/>
<path d="M12.25 17.5H11.75" stroke="#FA5F55" stroke-width="2" stroke-linecap="round" stroke-linejoin="round"/>
<path d="M12 21C16.9706 21 21 16.9706 21 12C21 7.02944 16.9706 3 12 3C7.02944 3 3 7.02944 3 12C3 16.9706 7.02944 21 12 21Z" stroke="#FA5F55" stroke-width="2" stroke-linecap="round" stroke-linejoin="round"/>
</svg>
